HIERARCHY
ROOT Hips
{
	OFFSET 0.00000 0.00000 0.00000
	CHANNELS 6 Xposition Yposition Zposition Zrotation Yrotation Xrotation 
	JOINT LHipJoint
	{
		OFFSET 0 0 0
		CHANNELS 3 Zrotation Yrotation Xrotation
		JOINT LeftUpLeg
		{
			OFFSET 1.62964 -1.40469 0.78906
			CHANNELS 3 Zrotation Yrotation Xrotation
			JOINT LeftLeg
			{
				OFFSET 2.29640 -6.30932 0.00000
				CHANNELS 3 Zrotation Yrotation Xrotation
				JOINT LeftFoot
				{
					OFFSET 2.29451 -6.30412 0.00000
					CHANNELS 3 Zrotation Yrotation Xrotation
					JOINT LeftToeBase
					{
						OFFSET 0.03611 -0.09921 1.56387
						CHANNELS 3 Zrotation Yrotation Xrotation
						End Site
						{
							OFFSET 0.00000 -0.00000 0.80291
						}
					}
				}
			}
		}
	}
	JOINT RHipJoint
	{
		OFFSET 0 0 0
		CHANNELS 3 Zrotation Yrotation Xrotation
		JOINT RightUpLeg
		{
			OFFSET -1.73712 -1.40469 0.78906
			CHANNELS 3 Zrotation Yrotation Xrotation
			JOINT RightLeg
			{
				OFFSET -2.28137 -6.26801 0.00000
				CHANNELS 3 Zrotation Yrotation Xrotation
				JOINT RightFoot
				{
					OFFSET -2.28681 -6.28298 0.00000
					CHANNELS 3 Zrotation Yrotation Xrotation
					JOINT RightToeBase
					{
						OFFSET -0.15927 -0.43759 1.61103
						CHANNELS 3 Zrotation Yrotation Xrotation
						End Site
						{
							OFFSET -0.00000 -0.00000 0.84630
						}
					}
				}
			}
		}
	}
	JOINT LowerBack
	{
		OFFSET 0 0 0
		CHANNELS 3 Zrotation Yrotation Xrotation
		JOINT Spine
		{
			OFFSET -0.04227 2.04338 -0.00225
			CHANNELS 3 Zrotation Yrotation Xrotation
			JOINT Spine1
			{
				OFFSET -0.02148 2.04482 -0.04273
				CHANNELS 3 Zrotation Yrotation Xrotation
				JOINT Neck
				{
					OFFSET 0 0 0
					CHANNELS 3 Zrotation Yrotation Xrotation
					JOINT Neck1
					{
						OFFSET 0.09180 1.44629 0.19359
						CHANNELS 3 Zrotation Yrotation Xrotation
						JOINT Head
						{
							OFFSET 0.00887 1.40645 0.14750
							CHANNELS 3 Zrotation Yrotation Xrotation
							End Site
							{
								OFFSET -0.00669 1.50671 0.03707
							}
						}
					}
				}
				JOINT LeftShoulder
				{
					OFFSET 0 0 0
					CHANNELS 3 Zrotation Yrotation Xrotation
					JOINT LeftArm
					{
						OFFSET 2.17674 1.86763 -0.06520
						CHANNELS 3 Zrotation Yrotation Xrotation
						JOINT LeftForeArm
						{
							OFFSET 4.65776 -0.00000 0.00000
							CHANNELS 3 Zrotation Yrotation Xrotation
							JOINT LeftHand
							{
								OFFSET 3.55539 -0.00000 0.00000
								CHANNELS 3 Zrotation Yrotation Xrotation
								JOINT LeftFingerBase
								{
									OFFSET 0 0 0
									CHANNELS 3 Zrotation Yrotation Xrotation
									JOINT LeftHandIndex1
									{
										OFFSET 0.70726 -0.00000 0.00000
										CHANNELS 3 Zrotation Yrotation Xrotation
										End Site
										{
											OFFSET 0.57022 -0.00000 0.00000
										}
									}
								}
								JOINT LThumb
								{
									OFFSET 0 0 0
									CHANNELS 3 Zrotation Yrotation Xrotation
									End Site
									{
										OFFSET 0.57892 -0.00000 0.57892
									}
								}
							}
						}
					}
				}
				JOINT RightShoulder
				{
					OFFSET 0 0 0
					CHANNELS 3 Zrotation Yrotation Xrotation
					JOINT RightArm
					{
						OFFSET -2.80694 1.55459 -0.32496
						CHANNELS 3 Zrotation Yrotation Xrotation
						JOINT RightForeArm
						{
							OFFSET -4.71925 -0.00000 -0.00000
							CHANNELS 3 Zrotation Yrotation Xrotation
							JOINT RightHand
							{
								OFFSET -3.56990 -0.00000 0.00000
								CHANNELS 3 Zrotation Yrotation Xrotation
								JOINT RightFingerBase
								{
									OFFSET 0 0 0
									CHANNELS 3 Zrotation Yrotation Xrotation
									JOINT RightHandIndex1
									{
										OFFSET -0.50776 -0.00000 0.00000
										CHANNELS 3 Zrotation Yrotation Xrotation
										End Site
										{
											OFFSET -0.40937 -0.00000 0.00000
										}
									}
								}
								JOINT RThumb
								{
									OFFSET 0 0 0
									CHANNELS 3 Zrotation Yrotation Xrotation
									End Site
									{
										OFFSET -0.41562 -0.00000 0.41562
									}
								}
							}
						}
					}
				}
			}
		}
	}
}
MOTION
Frames: 7
Frame Time: .0083333
9.329 16.3468 10.3455 0 0 0 0 0 0 -21 0 0 0 0 0 0 0 0 0 0 0 0 0 0 21 0 0 0 0 0 0 0 0 0 0 0 0 0 0 0 0 0 0 0 0 0 0 -16 0 0 21 0 0 11 0 0 0 -8 0 0 0 0 0 0 0 0 0 0 0 0 0 0 0 0 0 0 0 0 8 0 0 0 0 0 0 0 0 0 0 0 0 0 0 0 0 0
9.3290 16.3468 10.3455 179.6640 -3.2432 -152.6320 0.0000 0.0000 0.0000 -15.2142 -20.3261 -23.0661 0.4654 4.3758 12.1365 0.2975 -0.6151 -10.1037 3.9949 -12.1536 -36.2777 0.0000 0.0000 0.0000 16.0706 18.2071 -22.0293 -0.2985 -3.5131 9.7108 -1.3233 0.6190 -21.5635 -2.3937 9.6421 -27.8253 -5.6684 -1.0142 -28.5085 -0.6168 -0.2139 -2.4967 2.4101 -0.7173 13.0410 -3.9321 0.1157 0.7672 6.9134 -0.7176 8.7808 2.9448 -0.4684 2.7410 0.0000 0.0000 0.0000 -85.1143 0.7845 21.2788 11.9335 -19.7048 -2.0798 -0.0000 -0.0000 5.6685 20.5124 -10.1972 -3.7895 -7.1250 0.0000 -0.0000 -4.6151 19.1273 2.8573 0.0000 0.0000 0.0000 92.8720 -3.8208 9.2181 -15.8192 25.2749 -3.5684 0.0000 0.0000 1.6506 -14.0933 -49.2916 10.7752 7.1250 -0.0000 -0.0000 52.2770 -75.0138 -39.2525
9.3283 16.3471 10.3454 179.6610 -3.2418 -152.5990 0.0000 0.0000 0.0000 -15.2056 -20.3652 -23.1120 0.4670 4.3831 12.1569 0.2961 -0.5679 -10.0936 4.0460 -12.2213 -36.5195 0.0000 0.0000 0.0000 16.0444 18.2539 -22.0525 -0.2993 -3.5177 9.7237 -1.3243 0.5956 -21.5787 -2.4010 9.6556 -27.8685 -5.6976 -1.0447 -28.6022 -0.5937 -0.2394 -2.4734 2.4430 -0.7334 13.1204 -4.0196 0.1288 0.7855 6.9203 -0.6972 8.7711 2.9638 -0.4608 2.7341 -0.0000 0.0000 0.0000 -85.1497 0.6971 21.2636 11.9293 -19.6985 -2.0784 -0.0000 -0.0000 5.6304 20.5658 -10.1571 -3.7854 -7.1250 0.0000 -0.0000 -4.5764 19.1658 2.8293 -0.0000 0.0000 0.0000 92.8331 -3.8179 9.3464 -15.8435 25.3081 -3.5788 0.0000 0.0000 1.4657 -14.3831 -48.9131 10.9395 7.1250 -0.0000 -0.0000 50.8171 -74.9246 -37.9530
9.3284 16.3468 10.3452 179.6910 -3.2400 -152.5610 0.0000 0.0000 0.0000 -15.1287 -20.4272 -23.1685 0.4718 4.4054 12.2201 0.3002 -0.5766 -10.1612 3.9534 -12.0982 -36.0802 0.0000 0.0000 0.0000 16.0412 18.3739 -22.0534 -0.2983 -3.5116 9.7066 -1.3234 0.5413 -21.5881 -2.3756 9.6082 -27.7171 -5.6897 -1.0490 -28.7111 -0.6006 -0.2363 -2.4414 2.4306 -0.7337 13.2157 -3.9965 0.1270 0.7720 6.9143 -0.6985 8.7669 2.9574 -0.4603 2.7349 0.0000 0.0000 0.0000 -85.1025 0.6000 21.2658 11.9245 -19.6914 -2.0768 -0.0000 -0.0000 5.6468 20.4237 -10.4856 -3.8768 -7.1250 0.0000 -0.0000 -4.6833 18.8288 2.9310 0.0000 0.0000 0.0000 92.8767 -3.7666 9.3931 -15.8691 25.3429 -3.5898 0.0000 0.0000 1.3803 -14.5247 -48.8302 11.0355 7.1250 -0.0000 -0.0000 50.4348 -74.9339 -37.6456
9.3274 16.3474 10.3449 179.6640 -3.2071 -152.5760 0.0000 0.0000 0.0000 -15.1694 -20.4215 -23.1537 0.4739 4.4148 12.2468 0.3021 -0.5936 -10.1895 3.9240 -12.0585 -35.9393 0.0000 0.0000 0.0000 15.9955 18.3971 -22.0425 -0.2983 -3.5118 9.7071 -1.3239 0.5552 -21.5879 -2.3813 9.6188 -27.7508 -5.7067 -1.0178 -28.6795 -0.6649 -0.1869 -2.4526 2.3854 -0.7102 13.1811 -3.9261 0.1051 0.7460 6.9104 -0.7293 8.7731 2.9425 -0.4732 2.7430 0.0000 0.0000 0.0000 -85.0123 0.5929 21.2748 11.9152 -19.6773 -2.0736 -0.0000 -0.0000 5.7534 20.3244 -11.0425 -4.0580 -7.1250 0.0000 -0.0000 -4.7647 18.2477 3.0437 0.0000 0.0000 0.0000 92.9961 -3.7818 9.2971 -15.8742 25.3498 -3.5919 0.0000 0.0000 1.4073 -14.5624 -48.9014 11.0764 7.1250 -0.0000 -0.0000 50.6324 -74.9870 -37.8591
9.3261 16.3484 10.3454 179.5830 -3.1565 -152.6260 0.0000 0.0000 0.0000 -15.3151 -20.3535 -23.1160 0.4735 4.4131 12.2418 0.3006 -0.6273 -10.1532 3.9057 -12.0339 -35.8519 0.0000 0.0000 0.0000 15.8981 18.3950 -21.9841 -0.2974 -3.5064 9.6918 -1.3219 0.5383 -21.5768 -2.4011 9.6558 -27.8690 -5.8050 -1.0207 -28.6473 -0.6976 -0.1508 -2.4208 2.4185 -0.6975 13.1985 -3.9335 0.1012 0.7485 6.9178 -0.7351 8.7731 2.9463 -0.4761 2.7431 0.0000 0.0000 0.0000 -85.0551 0.5241 21.1643 11.8925 -19.6432 -2.0660 -0.0000 -0.0000 5.8577 20.4813 -11.2387 -4.1636 -7.1250 0.0000 -0.0000 -4.6589 18.0273 2.9983 0.0000 0.0000 0.0000 93.0195 -3.7571 9.2304 -15.8594 25.3296 -3.5856 0.0000 0.0000 1.4305 -14.6660 -48.6175 11.1096 7.1250 -0.0000 -0.0000 49.6392 -74.8709 -36.9311
9.3248 16.3485 10.3454 179.5540 -3.1189 -152.6440 0.0000 0.0000 0.0000 -15.3805 -20.3004 -23.0667 0.4668 4.3823 12.1548 0.2991 -0.6380 -10.1244 3.8509 -11.9593 -35.5881 0.0000 0.0000 0.0000 15.8607 18.3912 -21.9379 -0.2954 -3.4948 9.6596 -1.3155 0.4466 -21.5522 -2.4545 9.7546 -28.1857 -5.8604 -1.0321 -28.6608 -0.6865 -0.1439 -2.3956 2.4661 -0.6978 13.2349 -3.9740 0.1064 0.7534 6.9276 -0.7275 8.7704 2.9575 -0.4733 2.7414 -0.0000 -0.0000 0.0000 -85.1302 0.4590 21.0700 11.8735 -19.6146 -2.0596 -0.0000 -0.0000 5.8947 20.5917 -11.1922 -4.1709 -7.1250 0.0000 -0.0000 -4.5802 18.0675 2.9433 -0.0000 -0.0000 0.0000 92.9579 -3.6943 9.2823 -15.8387 25.3014 -3.5767 0.0000 0.0000 1.3524 -14.6629 -48.7512 11.1294 7.1250 -0.0000 -0.0000 50.0671 -74.9436 -37.3513
